<?xml version="1.0" standalone="no"?>
<!DOCTYPE svg PUBLIC "-//W3C//DTD SVG 20010904//EN"
 "http://www.w3.org/TR/2001/REC-SVG-20010904/DTD/svg10.dtd">
<svg version="1.0" xmlns="http://www.w3.org/2000/svg"
 width="500.000000pt" height="500.000000pt" viewBox="0 0 500.000000 500.000000"
 preserveAspectRatio="xMidYMid meet">

<g transform="translate(0.000000,500.000000) scale(0.100000,-0.100000)"
fill="#000000" stroke="none">
<path d="M1185 2875 c22 -130 61 -194 152 -253 27 -17 116 -54 200 -82 88 -30
168 -64 192 -81 49 -36 96 -129 107 -209 l7 -55 13 40 c16 50 17 150 3 235
-10 64 -10 65 16 87 29 25 83 31 103 11 9 -10 16 -9 28 4 23 23 12 44 -33 58
-43 14 -60 26 -49 37 4 4 12 1 17 -7 8 -12 10 -12 7 -1 -6 23 -69 51 -113 51
-22 0 -60 -5 -85 -11 -65 -16 -215 -13 -283 5 -111 30 -199 88 -260 171 l-29
40 7 -40z"/>
<path d="M1260 2615 c0 -17 45 -91 78 -127 35 -39 141 -98 177 -98 8 0 15 -4
15 -10 0 -14 -45 -23 -76 -16 -18 5 -24 3 -19 -5 14 -22 75 -39 142 -39 84 0
134 -22 186 -78 l37 -42 0 28 c0 48 -56 148 -102 181 -23 17 -91 47 -152 67
-129 42 -194 73 -247 115 -22 17 -39 28 -39 24z"/>
<path d="M2150 2480 l0 -120 25 0 25 0 0 120 0 120 -25 0 -25 0 0 -120z"/>
<path d="M2280 2481 l0 -121 88 0 c63 0 94 4 110 16 26 18 29 60 6 85 -12 13
-13 22 -5 38 34 62 -2 93 -114 99 l-85 5 0 -122z m145 65 c30 -22 3 -46 -51
-46 -39 0 -44 2 -44 23 0 13 3 27 7 30 11 12 69 7 88 -7z m15 -101 c24 -29 4
-45 -55 -45 -54 0 -55 0 -55 30 0 29 1 30 49 30 31 0 53 -5 61 -15z"/>
<path d="M2560 2480 l0 -120 24 0 c21 0 25 6 28 33 2 26 8 33 28 35 19 2 30
-6 48 -33 17 -27 29 -35 52 -35 l31 0 -25 36 -24 35 24 24 c14 14 24 36 24 52
0 62 -52 93 -157 93 l-53 0 0 -120z m148 42 c5 -34 -15 -52 -59 -52 -39 0 -39
0 -39 41 l0 40 48 -3 c40 -3 47 -6 50 -26z"/>
<path d="M2896 2568 c-8 -18 -30 -68 -50 -111 -20 -43 -36 -82 -36 -88 0 -21
47 -8 58 16 10 22 17 25 69 25 51 0 60 -3 68 -22 6 -14 21 -24 38 -26 15 -2
27 -2 27 0 0 6 -94 211 -103 226 -5 6 -19 12 -32 12 -18 0 -28 -9 -39 -32z
m59 -64 c21 -51 20 -54 -21 -54 -30 0 -35 3 -29 18 4 9 12 29 17 45 5 15 12
27 14 27 2 0 11 -16 19 -36z"/>
<path d="M3173 2585 c-36 -15 -73 -68 -73 -103 0 -37 25 -87 54 -106 35 -23
118 -23 152 -1 24 16 25 17 9 35 -16 17 -20 18 -38 5 -44 -31 -98 -14 -116 35
-12 37 -1 74 28 89 25 14 78 14 86 1 8 -13 18 -13 40 4 18 13 17 15 -15 35
-40 24 -81 26 -127 6z"/>
<path d="M3387 2594 c-4 -4 -7 -58 -7 -121 l0 -113 30 0 31 0 -3 118 c-3 109
-4 117 -23 120 -12 2 -24 0 -28 -4z"/>
<path d="M3494 2568 c92 -215 89 -209 120 -206 27 3 33 12 78 112 26 59 48
112 48 117 0 5 -11 9 -24 9 -23 0 -46 -38 -86 -144 -13 -36 -18 -31 -60 67
-30 71 -35 77 -61 77 -29 0 -29 0 -15 -32z"/>
</g>
</svg>
