<?xml version="1.0" encoding="UTF-8"?> <svg xmlns="http://www.w3.org/2000/svg" width="453" height="69" viewBox="0 0 453 69" fill="none"><g clip-path="url(#clip0_174_2)"><path d="M108.49 30.5984H117.964V64.9231H108.49V30.5984ZM165.927 48.1269L166.705 46.342C168.951 46.3243 171.181 46.736 173.272 47.5548C174.845 48.1794 176.193 49.2641 177.14 50.6669C178.007 52.0418 178.453 53.641 178.421 55.2664C178.453 57.0073 178.01 58.7238 177.14 60.2321C176.233 61.729 174.903 62.9235 173.318 63.6646C171.33 64.5651 169.161 64.9957 166.98 64.9231H141.625L144.279 47.3031L141.625 30.5984H166.064C169.237 30.5984 171.709 31.3383 173.478 32.8181C174.363 33.5723 175.062 34.5196 175.522 35.5868C175.982 36.6541 176.191 37.8128 176.133 38.9736C176.133 40.4076 175.788 41.8204 175.126 43.0926C174.383 44.4794 173.265 45.6293 171.899 46.4107C170.06 47.4184 168.02 48.0046 165.927 48.1269ZM151.007 62.7264L147.346 58.287H164.417C165.572 58.3584 166.713 57.9997 167.62 57.2802C168.006 56.9285 168.308 56.4957 168.506 56.0129C168.704 55.5301 168.792 55.0094 168.764 54.4884C168.786 53.9496 168.686 53.4128 168.472 52.9178C168.258 52.4227 167.936 51.982 167.529 51.628C166.478 50.8388 165.178 50.4568 163.867 50.5525H149.771V44.0537H162.586C163.6 44.0841 164.588 43.7329 165.355 43.0697C165.729 42.7348 166.024 42.3207 166.218 41.8576C166.412 41.3945 166.5 40.8939 166.476 40.3924C166.488 39.9679 166.408 39.5459 166.242 39.155C166.077 38.764 165.829 38.4134 165.515 38.127C164.748 37.4882 163.765 37.1687 162.769 37.2345H147.392L151.007 32.7952L153.341 47.3031L151.007 62.7264ZM207.94 45.6097H220.435C221.711 45.6868 222.974 45.3144 224.004 44.5571C224.43 44.2013 224.767 43.7516 224.99 43.2434C225.212 42.7351 225.314 42.1822 225.286 41.6281C225.319 41.07 225.22 40.5121 224.997 39.9994C224.774 39.4866 224.434 39.0334 224.004 38.6761C222.968 37.9335 221.708 37.5699 220.435 37.6464H206.613L210.87 33.1155V64.9231H201.396V30.5984H221.762C224.126 30.5442 226.472 31.0212 228.627 31.9943C230.474 32.8355 232.056 34.1647 233.203 35.8386C234.327 37.5567 234.902 39.5758 234.851 41.6281C234.891 43.6575 234.317 45.6516 233.203 47.3489C232.065 49.0307 230.48 50.3619 228.627 51.1932C226.468 52.1512 224.123 52.6201 221.762 52.5662H207.94V45.6097ZM213.066 48.8592H223.73L236.041 64.9231H225.057L213.066 48.8592ZM264.645 58.3328V50.6898H288.306V58.3328H264.645ZM282.906 30.5984L298.512 64.9231H288.398L275.308 34.6258H278.054L264.92 64.9231H254.805L270.411 30.5984H282.906Z" fill="#383838"></path><path d="M379.273 30.5981H388.747V64.9229H379.273V30.5981ZM433.781 60.6666H429.754L442.98 30.5981H453.003L437.031 64.9229H426.275L410.303 30.5981H420.463L433.781 60.6666Z" fill="#383838"></path><path d="M345.561 61.2696C342.518 62.5091 339.249 63.0964 335.965 62.9934C331.02 62.9934 327.061 61.6433 324.088 58.9431C321.115 56.2429 319.627 52.7006 319.626 48.3162C319.552 46.1565 319.964 44.0079 320.832 42.0291C321.701 40.0504 323.003 38.2922 324.642 36.8845C327.987 33.9788 332.229 32.526 337.368 32.526C340.149 32.4456 342.922 32.8561 345.561 33.7388V37.4192C342.982 36.2209 340.166 35.6167 337.323 35.6511C333.331 35.6511 330.095 36.782 327.615 39.0439C325.134 41.3058 323.893 44.3279 323.891 48.1102C323.891 51.7013 325.05 54.5628 327.369 56.6944C329.688 58.8261 332.731 59.892 336.499 59.892C339.634 59.9704 342.742 59.2933 345.561 57.9179V61.2696Z" fill="#383838" stroke="#383838" stroke-width="5.33941"></path><path d="M62.696 59.4728C61.7248 50.4903 57.2553 43.8339 49.1534 39.7849C41.1641 35.7912 33.0056 32.1309 24.9407 28.2852C19.7761 25.8176 14.5441 23.4492 9.85352 20.1296C3.24781 15.4578 0.188964 8.97055 0.00163785 1.02874C-0.0205455 -0.0526074 0.172532 -0.249364 1.202 0.288058C14.3592 7.17535 27.4006 14.2553 40.078 21.9809C41.2577 22.6369 42.3978 23.3604 43.4926 24.1476C44.4464 24.8916 45.167 24.7168 46.1135 24.1574C49.7553 21.9328 53.7577 20.3468 57.9446 19.4694C64.0401 18.2897 69.7445 18.8531 74.3562 23.5777C74.8073 24.0363 75.26 24.4485 74.5361 25.0485C73.9101 24.3647 73.1806 23.7813 72.3737 23.3191C72.0721 23.1939 71.6556 22.8468 71.3877 23.2175C71.1478 23.5427 71.4469 23.9281 71.672 24.22C71.9212 24.5889 72.2572 24.8924 72.6513 25.1041C73.0453 25.3159 73.4855 25.4296 73.9339 25.4355C76.2903 25.3542 77.9171 27.0868 79.9891 27.7055C80.8929 27.9738 81.1813 29.6194 80.7105 30.8024C80.4099 31.5378 79.9423 32.1949 79.3439 32.7227C78.7455 33.2506 78.0324 33.6351 77.2598 33.8464C77.6706 32.1521 76.6025 31.5658 75.3824 31.1301C74.31 30.7189 73.1589 30.5478 72.0118 30.6292C70.8646 30.7106 69.7499 31.0424 68.7478 31.6007C67.7456 32.1591 66.8809 32.9301 66.2156 33.8585C65.5504 34.7869 65.1012 35.8496 64.9003 36.9702C64.8782 37.0864 64.8535 37.2189 64.8313 37.371C64.8321 37.6234 64.7984 37.8747 64.7311 38.1182C64.5293 40.2182 64.4917 42.3305 64.6185 44.4363C64.8346 47.3771 65.2109 50.1276 65.2109 50.1276L65.2577 51.2366C65.266 51.3033 65.2725 51.3675 65.2775 51.4293C65.2717 51.3862 65.2668 51.3423 65.261 51.3V51.3992C66.5756 58.9093 65.0145 65.5925 62.1792 69C62.7316 65.8557 62.9051 62.6576 62.696 59.4728ZM57.7244 56.6653C54.5744 51.3537 50.1739 47.7023 44.0241 46.2754C37.3913 44.7307 30.747 43.2322 24.1413 41.5891C19.5994 40.4614 15.1521 39.0263 11.4934 35.9303C7.84684 32.8831 5.39537 28.6671 4.56566 24.0159C8.85938 25.8233 12.9017 27.4893 16.9144 29.2251C26.749 33.4757 36.5508 37.8125 46.4035 42.011C55.1857 45.751 59.3077 52.6066 60.2558 61.6932C59.38 60.0386 58.6898 58.2898 57.7244 56.6653ZM46.1817 58.8394C43.9822 58.789 41.7828 58.6223 39.8381 57.4312C39.2909 57.0962 38.8078 56.6596 38.056 56.0848C42.4927 54.7717 46.6081 55.1905 51.0374 56.4629C49.7366 55.2207 48.0866 54.3968 46.3041 54.0994C42.2914 53.1335 38.1702 52.9977 34.0761 52.7001C30.678 52.4562 27.2568 52.3172 23.9704 51.3179C22.037 50.7662 20.2525 49.7941 18.7471 48.4728C17.2418 47.1514 16.0537 45.514 15.2696 43.6802L15.2753 43.6859C19.2568 44.5184 23.0214 45.3356 26.7983 46.0844C32.4239 47.2039 38.0782 48.2032 43.6897 49.3918C49.694 50.6626 53.7709 54.3603 56.3803 59.759C56.4568 59.9824 56.515 60.2116 56.5545 60.4444C53.1653 58.8646 49.6686 58.9191 46.1817 58.8394Z" fill="#383838"></path></g><defs><clipPath id="clip0_174_2"><rect width="453" height="69" fill="white"></rect></clipPath></defs></svg> 