<svg xmlns="http://www.w3.org/2000/svg" viewBox="0.00 0.00 312.00 72.00"><path fill="#ffffff" d=" M 0.00 27.56 L 0.00 17.83 Q 3.04 5.64 14.02 1.75 C 18.45 0.18 24.87 0.73 28.71 0.83 A 6.33 6.29 -37.1 0 1 30.03 1.01 Q 36.33 2.57 40.61 7.43 A 0.46 0.45 47.3 0 1 40.59 8.06 L 35.75 12.91 A 0.44 0.43 45.5 0 1 35.13 12.90 C 24.07 1.28 3.16 11.15 8.95 27.77 C 12.17 37.01 23.13 39.53 31.30 35.53 A 1.04 1.03 77.4 0 0 31.89 34.59 L 31.89 21.45 A 0.31 0.30 -90.0 0 1 32.19 21.14 L 39.70 21.14 A 0.28 0.28 0.0 0 1 39.98 21.42 L 39.98 38.78 A 1.34 1.34 0.0 0 1 39.42 39.87 C 25.36 49.79 4.54 45.82 0.00 27.56 Z"></path><rect fill="#ffffff" x="48.87" y="0.80" width="8.46" height="43.90" rx="0.28"></rect><path fill="#ffffff" d=" M 96.16 21.59 A 0.45 0.44 -0.0 0 1 96.61 21.15 L 103.91 21.15 A 0.39 0.39 0.0 0 1 104.30 21.54 L 104.30 38.67 A 1.37 1.35 -18.9 0 1 103.76 39.75 C 96.06 45.62 84.94 46.88 76.35 42.76 C 65.31 37.46 61.28 24.85 65.66 13.79 Q 69.26 4.70 79.64 1.24 A 8.24 8.14 -54.3 0 1 82.10 0.82 Q 86.33 0.76 89.56 0.71 C 95.93 0.60 100.69 2.74 104.85 7.38 A 0.60 0.58 -43.6 0 1 104.82 8.19 L 100.20 12.82 A 0.54 0.54 0.0 0 1 99.44 12.83 Q 91.57 5.21 81.12 9.17 C 76.31 11.00 72.77 15.97 72.43 21.28 C 71.60 34.27 84.30 40.71 95.41 35.70 A 1.29 1.28 77.9 0 0 96.16 34.53 L 96.16 21.59 Z"></path><path fill="#ffffff" d=" M 129.94 0.83 Q 131.77 0.83 133.21 0.87 A 1.02 1.01 -11.3 0 1 134.10 1.46 L 153.62 44.53 A 0.13 0.13 0.0 0 1 153.50 44.72 L 145.11 44.72 A 0.50 0.49 78.0 0 1 144.66 44.42 Q 137.48 28.18 130.22 11.57 Q 130.14 11.39 129.94 11.39 Q 129.74 11.39 129.66 11.57 Q 122.40 28.18 115.22 44.42 A 0.50 0.49 -78.0 0 1 114.77 44.72 L 106.38 44.72 A 0.13 0.13 0.0 0 1 106.26 44.53 L 125.78 1.46 A 1.02 1.01 11.3 0 1 126.67 0.87 Q 128.11 0.83 129.94 0.83 Z"></path><path fill="#ffffff" d=" M 179.12 20.13 Q 182.08 23.94 186.31 28.91 A 0.18 0.17 25.2 0 0 186.62 28.80 L 186.62 1.05 A 0.29 0.29 0.0 0 1 186.91 0.76 L 194.69 0.76 A 0.26 0.25 -0.0 0 1 194.95 1.01 L 194.95 44.16 A 0.49 0.49 0.0 0 1 194.46 44.65 L 189.04 44.65 A 1.58 1.58 0.0 0 1 187.83 44.08 Q 180.52 35.42 172.63 25.27 Q 169.67 21.46 165.44 16.49 A 0.18 0.17 25.2 0 0 165.13 16.60 L 165.13 44.35 A 0.29 0.29 0.0 0 1 164.84 44.64 L 157.06 44.64 A 0.26 0.25 -0.0 0 1 156.80 44.39 L 156.80 1.24 A 0.49 0.49 0.0 0 1 157.29 0.75 L 162.71 0.75 A 1.58 1.58 0.0 0 1 163.92 1.32 Q 171.23 9.98 179.12 20.13 Z"></path><path fill="#ffffff" d=" M 217.46 0.82 Q 226.72 0.83 235.58 0.83 A 0.36 0.35 89.7 0 1 235.94 1.19 L 235.94 7.86 A 0.32 0.32 0.0 0 1 235.62 8.18 L 222.16 8.18 A 0.56 0.56 0.0 0 0 221.60 8.74 L 221.60 44.04 A 0.63 0.62 -2.6 0 1 221.03 44.66 Q 220.64 44.69 217.45 44.69 Q 214.26 44.69 213.87 44.66 A 0.63 0.62 2.6 0 1 213.30 44.04 L 213.31 8.74 A 0.56 0.56 0.0 0 0 212.75 8.18 L 199.29 8.17 A 0.32 0.32 0.0 0 1 198.97 7.85 L 198.98 1.18 A 0.36 0.35 -89.7 0 1 199.33 0.83 Q 208.19 0.82 217.46 0.82 Z"></path><path fill="#ffffff" d=" M 271.41 8.18 L 248.64 8.18 A 0.32 0.32 0.0 0 0 248.32 8.50 L 248.32 18.22 A 0.32 0.32 0.0 0 0 248.64 18.54 L 268.82 18.54 A 0.32 0.32 0.0 0 1 269.14 18.86 L 269.14 25.67 A 0.32 0.32 0.0 0 1 268.82 25.99 L 248.63 25.99 A 0.32 0.32 0.0 0 0 248.31 26.31 L 248.31 36.73 A 0.32 0.32 0.0 0 0 248.63 37.05 L 272.31 37.05 A 0.32 0.32 0.0 0 1 272.63 37.37 L 272.63 44.38 A 0.32 0.32 0.0 0 1 272.31 44.70 L 240.19 44.70 A 0.32 0.32 0.0 0 1 239.87 44.38 L 239.87 1.15 A 0.32 0.32 0.0 0 1 240.19 0.83 L 271.41 0.83 A 0.32 0.32 0.0 0 1 271.73 1.15 L 271.73 7.86 A 0.32 0.32 0.0 0 1 271.41 8.18 Z"></path><path fill="#ffffff" d=" M 306.21 11.33 A 0.25 0.25 0.0 0 1 305.84 11.44 Q 299.24 7.15 292.76 7.68 Q 288.88 7.99 287.20 9.33 C 283.38 12.37 285.29 15.57 288.96 17.16 C 294.77 19.68 305.88 19.61 309.43 27.21 Q 311.84 32.36 309.00 37.68 C 303.81 47.44 288.09 46.23 279.71 41.98 Q 279.27 41.76 276.66 39.97 A 1.49 1.49 0.0 0 1 276.12 38.16 L 278.25 33.09 A 0.97 0.97 0.0 0 1 279.76 32.71 Q 288.59 39.89 299.03 36.60 Q 301.57 35.80 302.09 32.80 C 302.54 30.24 299.67 28.59 297.76 27.97 C 291.62 25.99 279.08 25.18 277.19 15.89 C 275.53 7.73 281.63 1.14 289.74 0.78 C 296.30 0.50 302.49 0.09 308.82 4.44 A 0.34 0.33 -62.0 0 1 308.94 4.84 L 306.21 11.33 Z"></path><ellipse fill="#ffffff" cx="0.00" cy="0.00" transform="translate(171.53,52.60) rotate(-0.8)" rx="2.51" ry="2.25"></ellipse><ellipse fill="#ffffff" cx="0.00" cy="0.00" transform="translate(240.05,52.59) rotate(-0.4)" rx="2.44" ry="2.26"></ellipse><ellipse fill="#ffffff" cx="0.00" cy="0.00" transform="translate(255.29,52.60) rotate(-180.9)" rx="2.46" ry="2.25"></ellipse><ellipse fill="#ffffff" cx="0.00" cy="0.00" transform="translate(289.79,52.60) rotate(-1.9)" rx="2.46" ry="2.26"></ellipse><path fill="#ffffff" d=" M 271.65 51.70 L 267.64 54.84 A 0.55 0.54 -63.9 0 1 267.30 54.96 L 265.04 54.96 A 0.31 0.31 0.0 0 1 264.82 54.43 L 267.76 51.52 A 1.35 1.35 0.0 0 1 268.97 51.16 Q 269.33 51.22 271.38 51.02 A 0.38 0.38 0.0 0 1 271.65 51.70 Z"></path><path fill="#ffffff" d=" M 11.87 57.15 L 11.87 52.21 A 0.39 0.39 0.0 0 1 12.26 51.82 L 15.39 51.82 A 0.41 0.41 0.0 0 1 15.80 52.23 L 15.80 69.99 A 0.52 0.51 86.2 0 1 15.36 70.50 Q 13.24 70.81 12.12 70.15 A 0.97 0.97 0.0 0 0 11.23 70.09 Q 5.28 72.67 2.15 67.89 C -1.71 61.96 4.54 52.93 11.25 57.48 A 0.40 0.40 0.0 0 0 11.87 57.15 Z M 8.4990 59.5601 A 4.15 3.47 -89.6 0 0 5.0001 63.6858 A 4.15 3.47 -89.6 0 0 8.4410 67.8599 A 4.15 3.47 -89.6 0 0 11.9399 63.7342 A 4.15 3.47 -89.6 0 0 8.4990 59.5601 Z"></path><path fill="#ffffff" d=" M 137.12 57.48 A 0.40 0.40 0.0 0 0 137.74 57.15 L 137.74 52.22 A 0.39 0.39 0.0 0 1 138.12 51.83 L 141.25 51.83 A 0.41 0.41 0.0 0 1 141.66 52.24 L 141.67 69.98 A 0.51 0.51 0.0 0 1 141.23 70.48 Q 139.12 70.80 138.00 70.14 A 0.97 0.97 0.0 0 0 137.11 70.08 Q 131.17 72.66 128.04 67.89 C 124.18 61.97 130.42 52.94 137.12 57.48 Z M 134.3455 59.5700 A 4.14 3.46 -90.2 0 0 130.9000 63.7221 A 4.14 3.46 -90.2 0 0 134.3745 67.8500 A 4.14 3.46 -90.2 0 0 137.8200 63.6979 A 4.14 3.46 -90.2 0 0 134.3455 59.5700 Z"></path><path fill="#ffffff" d=" M 225.40 57.49 C 232.10 52.99 238.29 62.01 234.42 67.90 Q 231.28 72.65 225.37 70.05 A 0.97 0.97 0.0 0 0 224.48 70.11 Q 223.36 70.76 221.25 70.44 A 0.51 0.51 0.0 0 1 220.82 69.93 L 220.89 52.25 A 0.41 0.41 0.0 0 1 221.30 51.84 L 224.42 51.85 A 0.39 0.39 0.0 0 1 224.80 52.24 L 224.78 57.16 A 0.40 0.40 0.0 0 0 225.40 57.49 Z M 228.1027 59.5400 A 4.17 3.42 -90.1 0 0 224.6900 63.7160 A 4.17 3.42 -90.1 0 0 228.1173 67.8800 A 4.17 3.42 -90.1 0 0 231.5300 63.7040 A 4.17 3.42 -90.1 0 0 228.1027 59.5400 Z"></path><rect fill="#ffffff" x="245.75" y="51.82" width="3.90" height="18.70" rx="0.34"></rect><path fill="#ffffff" d=" M 33.54 63.69 A 7.40 7.40 0.0 0 1 26.14 71.09 A 7.40 7.40 0.0 0 1 18.74 63.69 A 7.40 7.40 0.0 0 1 26.14 56.29 A 7.40 7.40 0.0 0 1 33.54 63.69 Z M 26.1138 59.5602 A 4.15 3.34 -90.5 0 0 22.8101 63.7391 A 4.15 3.34 -90.5 0 0 26.1862 67.8598 A 4.15 3.34 -90.5 0 0 29.4899 63.6809 A 4.15 3.34 -90.5 0 0 26.1138 59.5602 Z"></path><path fill="#ffffff" d=" M 56.88 70.07 A 0.44 0.44 0.0 0 1 56.44 70.50 L 53.39 70.51 A 0.46 0.46 0.0 0 1 52.93 70.05 L 52.92 62.13 A 2.31 2.30 -3.5 0 0 50.34 59.85 L 50.08 59.88 A 2.78 2.77 86.6 0 0 47.64 62.64 L 47.65 70.02 A 0.49 0.49 0.0 0 1 47.16 70.51 L 44.17 70.51 A 0.49 0.48 89.9 0 1 43.69 70.02 L 43.67 57.55 A 0.61 0.61 0.0 0 1 44.18 56.95 Q 46.39 56.60 47.47 57.34 A 0.84 0.83 46.0 0 0 48.39 57.36 Q 52.13 54.93 55.57 58.07 A 0.62 0.62 0.0 0 0 56.38 58.09 C 59.08 55.85 62.65 55.63 65.10 58.00 C 67.16 59.97 66.50 67.46 66.51 70.04 A 0.46 0.46 0.0 0 1 66.05 70.50 L 63.03 70.51 A 0.46 0.46 0.0 0 1 62.57 70.05 L 62.56 62.32 A 2.51 2.51 0.0 0 0 59.75 59.84 L 59.48 59.87 A 2.84 2.84 0.0 0 0 56.89 62.69 L 56.88 70.07 Z"></path><path fill="#ffffff" d=" M 73.68 64.70 A 0.42 0.41 74.3 0 0 73.33 65.33 Q 76.09 69.88 80.34 66.68 A 0.43 0.43 0.0 0 1 80.89 66.72 L 82.53 68.37 A 0.48 0.48 0.0 0 1 82.53 69.05 C 79.96 71.67 74.81 71.51 71.98 69.43 C 68.45 66.84 68.44 61.04 71.71 58.14 Q 74.07 56.05 77.25 56.34 C 81.60 56.74 83.79 60.01 83.86 64.19 A 0.51 0.50 -0.6 0 1 83.35 64.70 L 73.68 64.70 Z M 73.45 62.40 L 79.83 62.42 A 0.10 0.10 0.0 0 0 79.93 62.32 L 79.93 62.26 A 3.17 2.88 0.1 0 0 76.76 59.37 L 76.52 59.37 A 3.17 2.88 0.1 0 0 73.35 62.24 L 73.35 62.30 A 0.10 0.10 0.0 0 0 73.45 62.40 Z"></path><path fill="#ffffff" d=" M 90.68 58.01 Q 92.53 56.65 94.40 56.36 A 0.36 0.36 0.0 0 1 94.82 56.72 L 94.82 59.56 A 0.40 0.39 2.7 0 1 94.38 59.95 Q 90.09 59.57 90.14 64.78 Q 90.18 69.14 90.20 69.99 A 0.54 0.53 89.5 0 1 89.67 70.54 L 86.73 70.54 A 0.50 0.50 0.0 0 1 86.23 70.04 L 86.23 57.47 A 0.62 0.61 -0.5 0 1 86.84 56.86 L 89.11 56.84 A 0.96 0.95 -8.1 0 1 90.03 57.52 Q 90.04 57.56 90.04 57.70 A 0.40 0.40 0.0 0 0 90.68 58.01 Z"></path><path fill="#ffffff" d=" M 99.95 63.68 C 99.94 67.25 103.77 69.52 106.27 66.29 A 0.55 0.54 -59.3 0 1 106.91 66.12 L 109.34 67.14 A 0.59 0.59 0.0 0 1 109.57 68.06 Q 105.76 72.73 99.78 70.14 A 4.15 3.87 73.5 0 1 98.90 69.62 Q 95.93 67.35 95.94 63.67 Q 95.95 59.98 98.93 57.72 A 4.15 3.87 -73.2 0 1 99.81 57.21 Q 105.80 54.65 109.59 59.33 A 0.59 0.59 0.0 0 1 109.36 60.25 L 106.92 61.26 A 0.55 0.54 59.6 0 1 106.28 61.09 C 103.80 57.85 99.96 60.10 99.95 63.68 Z"></path><path fill="#ffffff" d=" M 120.12 69.70 Q 117.29 71.66 114.44 70.76 C 111.56 69.84 110.27 67.30 111.70 64.63 C 112.93 62.33 117.28 62.09 119.19 62.52 A 0.97 0.97 0.0 0 0 120.10 60.89 Q 117.42 58.12 113.41 60.66 A 0.41 0.40 62.0 0 1 112.83 60.48 L 111.87 58.37 A 0.48 0.47 -27.5 0 1 112.07 57.76 C 115.42 55.82 121.24 55.38 123.50 59.16 C 124.73 61.21 124.21 65.87 124.20 69.89 A 0.67 0.66 -0.4 0 1 123.54 70.55 L 121.54 70.58 A 0.93 0.93 0.0 0 1 120.67 69.98 Q 120.66 69.97 120.66 69.94 A 0.35 0.35 0.0 0 0 120.12 69.70 Z M 119.71 64.68 Q 117.08 64.58 115.94 64.99 A 1.58 1.50 -28.5 0 0 115.17 67.36 C 116.86 69.52 120.60 68.09 120.32 65.27 A 0.65 0.64 -1.0 0 0 119.71 64.68 Z"></path><path fill="#ffffff" d=" M 159.43 63.69 A 7.40 7.40 0.0 0 1 152.03 71.09 A 7.40 7.40 0.0 0 1 144.63 63.69 A 7.40 7.40 0.0 0 1 152.03 56.29 A 7.40 7.40 0.0 0 1 159.43 63.69 Z M 152.0790 59.5601 A 4.15 3.34 -89.6 0 0 148.7101 63.6867 A 4.15 3.34 -89.6 0 0 152.0210 67.8599 A 4.15 3.34 -89.6 0 0 155.3899 63.7333 A 4.15 3.34 -89.6 0 0 152.0790 59.5601 Z"></path><path fill="#ffffff" d=" M 190.35 70.11 A 0.44 0.44 0.0 0 1 189.91 70.55 L 186.85 70.55 A 0.46 0.46 0.0 0 1 186.39 70.09 L 186.39 62.13 A 2.31 2.31 0.0 0 0 183.80 59.84 L 183.54 59.87 A 2.79 2.79 0.0 0 0 181.08 62.64 L 181.08 70.05 A 0.49 0.49 0.0 0 1 180.59 70.54 L 177.59 70.54 A 0.49 0.48 90.0 0 1 177.11 70.05 L 177.11 57.52 A 0.62 0.61 -5.1 0 1 177.62 56.92 Q 179.84 56.57 180.92 57.32 A 0.84 0.84 0.0 0 0 181.85 57.34 Q 185.60 54.90 189.05 58.06 A 0.62 0.62 0.0 0 0 189.87 58.08 C 192.58 55.84 196.17 55.62 198.63 58.00 C 200.69 59.99 200.02 67.51 200.02 70.10 A 0.46 0.46 0.0 0 1 199.56 70.56 L 196.53 70.56 A 0.46 0.46 0.0 0 1 196.07 70.10 L 196.07 62.34 A 2.52 2.52 0.0 0 0 193.25 59.84 L 192.98 59.87 A 2.85 2.85 0.0 0 0 190.37 62.70 L 190.35 70.11 Z"></path><path fill="#ffffff" d=" M 217.83 63.68 A 7.41 7.41 0.0 0 1 210.42 71.09 A 7.41 7.41 0.0 0 1 203.01 63.68 A 7.41 7.41 0.0 0 1 210.42 56.27 A 7.41 7.41 0.0 0 1 217.83 63.68 Z M 210.3955 59.5600 A 4.15 3.38 -90.2 0 0 207.0300 63.7218 A 4.15 3.38 -90.2 0 0 210.4245 67.8600 A 4.15 3.38 -90.2 0 0 213.7900 63.6982 A 4.15 3.38 -90.2 0 0 210.3955 59.5600 Z"></path><path fill="#ffffff" d=" M 269.42 69.93 A 0.35 0.35 0.0 0 0 268.88 69.69 Q 266.05 71.66 263.20 70.77 C 260.32 69.86 259.02 67.33 260.44 64.65 C 261.66 62.35 266.01 62.09 267.92 62.51 A 0.98 0.97 74.0 0 0 268.83 60.88 Q 266.13 58.12 262.13 60.67 A 0.41 0.40 61.8 0 1 261.55 60.50 L 260.58 58.39 A 0.48 0.47 -27.7 0 1 260.78 57.78 C 264.13 55.83 269.95 55.36 272.22 59.14 C 273.46 61.18 272.95 65.85 272.96 69.87 A 0.67 0.66 -0.6 0 1 272.30 70.53 L 270.30 70.57 A 0.93 0.93 0.0 0 1 269.43 69.97 Q 269.42 69.96 269.42 69.93 Z M 268.48 64.68 Q 265.85 64.58 264.71 64.99 A 1.58 1.50 -28.5 0 0 263.94 67.36 C 265.63 69.52 269.37 68.09 269.09 65.26 A 0.65 0.64 -1.0 0 0 268.48 64.68 Z"></path><path fill="#ffffff" d=" M 280.41 57.73 A 0.40 0.40 0.0 0 0 281.04 58.03 Q 282.87 56.66 284.73 56.36 A 0.36 0.36 0.0 0 1 285.15 56.71 L 285.18 59.54 A 0.40 0.39 2.2 0 1 284.74 59.93 Q 280.47 59.59 280.57 64.77 Q 280.64 69.11 280.67 69.96 A 0.54 0.53 89.0 0 1 280.15 70.51 L 277.22 70.53 A 0.50 0.50 0.0 0 1 276.72 70.04 L 276.61 57.53 A 0.62 0.61 -1.0 0 1 277.21 56.92 L 279.47 56.88 A 0.96 0.94 -8.6 0 1 280.39 57.55 Q 280.40 57.59 280.41 57.73 Z"></path><path fill="#ffffff" d=" M 309.20 63.68 A 7.41 7.41 0.0 0 1 301.79 71.09 A 7.41 7.41 0.0 0 1 294.38 63.68 A 7.41 7.41 0.0 0 1 301.79 56.27 A 7.41 7.41 0.0 0 1 309.20 63.68 Z M 301.8406 59.5703 A 4.14 3.36 -89.3 0 0 298.4303 63.6690 A 4.14 3.36 -89.3 0 0 301.7394 67.8497 A 4.14 3.36 -89.3 0 0 305.1497 63.7510 A 4.14 3.36 -89.3 0 0 301.8406 59.5703 Z"></path><rect fill="#ffffff" x="169.56" y="56.88" width="3.92" height="13.64" rx="0.35"></rect><rect fill="#ffffff" x="-1.99" y="-6.81" transform="translate(240.05,63.69) rotate(-0.1)" width="3.98" height="13.62" rx="0.31"></rect><rect fill="#ffffff" x="253.24" y="56.88" width="3.96" height="13.62" rx="0.33"></rect><rect fill="#ffffff" x="-1.97" y="-6.82" transform="translate(289.84,63.70) rotate(0.1)" width="3.94" height="13.64" rx="0.40"></rect></svg>